<svg width="32" height="32" viewBox="0 0 32 32" fill="none" xmlns="http://www.w3.org/2000/svg">
<g id="Group 1000002192">
<g id="Group 1000002192_2">
<path id="Vector" d="M9.46875 9.46875H12.2812V12.2812H9.46875V9.46875ZM12.2812 12.2812H15.0938V15.0938H12.2812V12.2812ZM15.0938 9.46875H17.9062V12.2812H15.0938V9.46875ZM20.7188 9.46875H23.5312V12.2812H20.7188V9.46875ZM9.46875 15.0938H12.2812V17.9062H9.46875V15.0938ZM15.0938 15.0938H17.9062V17.9062H15.0938V15.0938ZM20.7188 15.0938H23.5312V17.9062H20.7188V15.0938ZM9.46875 20.7188H12.2812V23.5312H9.46875V20.7188ZM15.0938 20.7188H17.9062V23.5312H15.0938V20.7188ZM20.7188 20.7188H23.5312V23.5312H20.7188V20.7188ZM17.9062 12.2812H20.7188V15.0938H17.9062V12.2812ZM12.2812 17.9062H15.0938V20.7188H12.2812V17.9062ZM17.9062 17.9062H20.7188V20.7188H17.9062V17.9062Z" fill="#667085"/>
</g>
</g>
</svg>
