<svg width="62" height="61" viewBox="0 0 62 61" fill="none" xmlns="http://www.w3.org/2000/svg">
<mask id="mask0_49_15158" style="mask-type:alpha" maskUnits="userSpaceOnUse" x="0" y="0" width="62" height="61">
<rect x="0.47998" y="0.241211" width="60.5603" height="60.5603" fill="#D9D9D9"/>
</mask>
<g mask="url(#mask0_49_15158)">
<path d="M28.8679 52.0828C27.4801 52.0828 26.0817 51.9251 24.6728 51.6097C23.264 51.2943 21.8236 50.8422 20.3516 50.2534C20.8563 45.1646 22.3282 40.4123 24.7675 35.9965C27.2067 31.5806 30.3399 27.6905 34.1669 24.326C29.5408 26.6811 25.535 29.7932 22.1495 33.6624C18.764 37.5315 16.3984 41.9474 15.0526 46.91C14.8844 46.7838 14.7267 46.6471 14.5795 46.4999L14.1063 46.0268C12.1297 44.0502 10.6262 41.8422 9.59584 39.403C8.56548 36.9638 8.05029 34.4194 8.05029 31.7699C8.05029 28.9101 8.61805 26.1765 9.75355 23.569C10.8891 20.9615 12.4662 18.6485 14.4848 16.6298C17.8913 13.2233 22.3072 11.0048 27.7324 9.97446C33.1576 8.94409 40.7697 8.84946 50.5687 9.69058C51.3257 19.7419 51.1995 27.4066 50.1902 32.6846C49.1809 37.9626 46.994 42.2838 43.6295 45.6483C41.5688 47.709 39.2662 49.2966 36.7218 50.4111C34.1775 51.5256 31.5595 52.0828 28.8679 52.0828Z" fill="#667085"/>
</g>
</svg>
