<svg width="61" height="61" viewBox="0 0 61 61" fill="none" xmlns="http://www.w3.org/2000/svg">
<mask id="mask0_49_15161" style="mask-type:alpha" maskUnits="userSpaceOnUse" x="0" y="0" width="61" height="61">
<rect y="0.241211" width="60.5603" height="60.5603" fill="#D9D9D9"/>
</mask>
<g mask="url(#mask0_49_15161)">
<path d="M17.6633 55.755V32.6664C15.5185 32.0776 13.7206 30.9001 12.2696 29.1337C10.8187 27.3674 10.0933 25.3066 10.0933 22.9515V5.28809H15.14V22.9515H17.6633V5.28809H22.71V22.9515H25.2333V5.28809H30.28V22.9515C30.28 25.3066 29.5546 27.3674 28.1037 29.1337C26.6527 30.9001 24.8548 32.0776 22.71 32.6664V55.755H17.6633ZM42.8968 55.755V35.5683H35.3267V17.9048C35.3267 14.4142 36.5569 11.4387 39.0171 8.97848C41.4774 6.51822 44.4528 5.28809 47.9435 5.28809V55.755H42.8968Z" fill="#667085"/>
</g>
</svg>
