<svg width="61" height="61" viewBox="0 0 61 61" fill="none" xmlns="http://www.w3.org/2000/svg">
<mask id="mask0_49_15152" style="mask-type:alpha" maskUnits="userSpaceOnUse" x="0" y="0" width="61" height="61">
<rect x="0.439453" y="0.241211" width="60.5603" height="60.5603" fill="#D9D9D9"/>
</mask>
<g mask="url(#mask0_49_15152)">
<path d="M30.7199 59.0355L22.2667 50.7084H10.5331V38.9749L2.20605 30.5216L10.5331 22.0684V10.3349H22.2667L30.7199 2.00781L39.1731 10.3349H50.9067V22.0684L59.2337 30.5216L50.9067 38.9749V50.7084H39.1731L30.7199 59.0355ZM30.7199 51.9701L37.0283 45.6617H45.86V36.83L52.1683 30.5216L45.86 24.2133V15.3816H37.0283L30.7199 9.07319L24.4115 15.3816H15.5798V24.2133L9.27143 30.5216L15.5798 36.83V45.6617H24.4115L30.7199 51.9701ZM23.3391 41.2459L30.7199 36.7669L38.1007 41.2459L36.1451 32.8557L42.7058 27.1782L34.0633 26.4843L30.7199 18.5357L27.3764 26.4843L18.734 27.1782L25.2947 32.8557L23.3391 41.2459Z" fill="#667085"/>
</g>
</svg>
