<svg width="62" height="62" viewBox="0 0 62 62" fill="none" xmlns="http://www.w3.org/2000/svg">
<mask id="mask0_49_15164" style="mask-type:alpha" maskUnits="userSpaceOnUse" x="0" y="0" width="62" height="62">
<rect x="0.959473" y="0.494141" width="60.5603" height="60.5603" fill="#D9D9D9"/>
</mask>
<g mask="url(#mask0_49_15164)">
<path d="M51.3005 53.4842C46.0436 53.4842 40.8391 52.3487 35.6873 50.0777C30.5355 47.8067 25.8568 44.5684 21.6512 40.3628C17.4456 36.1572 14.2073 31.489 11.9363 26.3582C9.66529 21.2274 8.52979 16.0125 8.52979 10.7135V8.06396H23.4175L25.7516 20.7438L18.5601 27.9984C19.4853 29.6386 20.5157 31.1947 21.6512 32.6666C22.7867 34.1386 24.0063 35.5054 25.31 36.767C26.5297 37.9867 27.8649 39.1537 29.3159 40.2682C30.7668 41.3827 32.3334 42.4235 34.0156 43.3908L41.3333 36.0731L53.95 38.6596V53.4842H51.3005Z" fill="#667085"/>
</g>
</svg>
