<svg width="62" height="62" viewBox="0 0 62 62" fill="none" xmlns="http://www.w3.org/2000/svg">
<g clip-path="url(#clip0_49_15170)">
<path d="M61.0403 30.7743C61.0403 14.051 47.4834 0.494141 30.7602 0.494141C14.0369 0.494141 0.47998 14.051 0.47998 30.7743C0.47998 45.8878 11.5529 58.415 26.0289 60.6866V39.5272H18.3406V30.7743H26.0289V24.1032C26.0289 16.5142 30.5496 12.3223 37.4661 12.3223C40.778 12.3223 44.2443 12.9137 44.2443 12.9137V20.3655H40.4262C36.6648 20.3655 35.4914 22.6998 35.4914 25.0968V30.7743H43.8895L42.5469 39.5272H35.4914V60.6866C49.9674 58.415 61.0403 45.8878 61.0403 30.7743Z" fill="#667085"/>
</g>
<defs>
<clipPath id="clip0_49_15170">
<rect width="60.5603" height="60.5603" fill="white" transform="translate(0.47998 0.494141)"/>
</clipPath>
</defs>
</svg>
