<svg width="61" height="62" viewBox="0 0 61 62" fill="none" xmlns="http://www.w3.org/2000/svg">
<mask id="mask0_49_15167" style="mask-type:alpha" maskUnits="userSpaceOnUse" x="0" y="0" width="61" height="62">
<rect x="0.439453" y="0.494141" width="60.5603" height="60.5603" fill="#D9D9D9"/>
</mask>
<g mask="url(#mask0_49_15167)">
<path d="M30.7195 30.774C32.1073 30.774 33.2954 30.2799 34.2837 29.2915C35.272 28.3032 35.7662 27.1152 35.7662 25.7273C35.7662 24.3395 35.272 23.1514 34.2837 22.1631C33.2954 21.1748 32.1073 20.6806 30.7195 20.6806C29.3317 20.6806 28.1436 21.1748 27.1553 22.1631C26.167 23.1514 25.6728 24.3395 25.6728 25.7273C25.6728 27.1152 26.167 28.3032 27.1553 29.2915C28.1436 30.2799 29.3317 30.774 30.7195 30.774ZM30.7195 56.0075C23.9485 50.2458 18.8913 44.8942 15.5479 39.9527C12.2044 35.0111 10.5327 30.4376 10.5327 26.232C10.5327 19.9236 12.5619 14.8979 16.6203 11.155C20.6787 7.41201 25.3784 5.54053 30.7195 5.54053C36.0606 5.54053 40.7603 7.41201 44.8187 11.155C48.8771 14.8979 50.9063 19.9236 50.9063 26.232C50.9063 30.4376 49.2346 35.0111 45.8911 39.9527C42.5477 44.8942 37.4905 50.2458 30.7195 56.0075Z" fill="#667085"/>
</g>
</svg>
