<svg  width="61" height="62" viewBox="0 0 61 62" fill="none" xmlns="http://www.w3.org/2000/svg">
<path  fill-rule="evenodd" clip-rule="evenodd" d="M30.2803 57.2696C44.9132 57.2696 56.7755 45.4073 56.7755 30.7745C56.7755 16.1416 44.9132 4.2793 30.2803 4.2793C15.6474 4.2793 3.78516 16.1416 3.78516 30.7745C3.78516 35.5263 5.0361 39.986 7.22664 43.8422L3.78516 57.2696L17.6286 54.0595C21.3881 56.1065 25.6984 57.2696 30.2803 57.2696ZM30.2803 53.1934C42.662 53.1934 52.6993 43.1561 52.6993 30.7745C52.6993 18.3928 42.662 8.35547 30.2803 8.35547C17.8987 8.35547 7.86133 18.3928 7.86133 30.7745C7.86133 35.5551 9.35766 39.9862 11.9075 43.625L9.89942 51.1553L17.5625 49.2396C21.1761 51.7332 25.5577 53.1934 30.2803 53.1934Z" fill="#667085"/>
<path d="M23.6565 18.4732C23.0265 17.2079 22.0601 17.3199 21.0839 17.3199C19.3392 17.3199 16.6187 19.4098 16.6187 23.2992C16.6187 26.4868 18.0233 29.9761 22.7564 35.1959C27.3242 40.2333 33.326 42.8391 38.3086 42.7504C43.2913 42.6617 44.3164 38.374 44.3164 36.926C44.3164 36.2842 43.9181 35.964 43.6437 35.877C41.9458 35.0621 38.8142 33.5437 38.1016 33.2585C37.3891 32.9732 37.017 33.359 36.7857 33.569C36.1396 34.1847 34.8587 35.9995 34.4201 36.4077C33.9815 36.8159 33.3277 36.6093 33.0556 36.455C32.0543 36.0532 29.3395 34.8456 27.1755 32.7479C24.4992 30.1536 24.3421 29.261 23.8379 28.4664C23.4345 27.8308 23.7305 27.4408 23.8782 27.2704C24.4549 26.6051 25.2511 25.5779 25.6081 25.0674C25.9652 24.5569 25.6817 23.7819 25.5116 23.2992C24.7801 21.2232 24.1604 19.4854 23.6565 18.4732Z" fill="#667085"/>
</svg>
